<svg width="589" height="518" viewBox="0 0 589 518" fill="none" xmlns="http://www.w3.org/2000/svg">
<path d="M510.091 502.659L496.599 502.658L490.181 450.518L510.094 450.519L510.091 502.659Z" fill="#FFB6B6"/>
<path d="M510.566 516.761L469.077 516.759V516.234C469.077 507.298 476.307 500.055 485.225 500.054H485.226L492.805 494.294L506.945 500.055L510.567 500.055L510.566 516.761Z" fill="#2F2E41"/>
<path d="M450.277 502.659L436.785 502.658L430.367 450.518L450.28 450.519L450.277 502.659Z" fill="#FFB6B6"/>
<path d="M450.752 516.761L409.263 516.759V516.234C409.263 507.298 416.493 500.055 425.411 500.054H425.412L432.991 494.294L447.131 500.055L450.753 500.055L450.752 516.761Z" fill="#2F2E41"/>
<path d="M443.848 211.676L521.688 213.318C521.688 213.318 535.682 236.305 524.998 268.732L526.195 277.762L521.278 291.718L518.82 334.407L521.278 340.975L519.64 353.289C519.64 353.289 526.195 434.562 509.807 475.609L490.142 474.788L482.768 367.694L486.865 359.856L486.045 356.573L476.213 307.316L466.381 332.765V346.906L457.368 357.394C457.368 357.394 460.645 454.265 451.632 473.967H429.615L421.315 342.617L429.509 266.269L427.87 261.343L430.328 258.881L428.69 250.671L443.848 211.676L443.848 211.676Z" fill="#2F2E41"/>
<path d="M477.032 61.8546L500.794 56.108L507.349 71.7059C507.349 71.7059 541.263 89.7667 542.902 114.395C542.902 114.395 547.498 134.098 543.401 143.128C539.304 152.158 522.098 180.891 522.098 180.891C522.098 180.891 537.666 230.969 533.569 233.431C529.472 235.894 431.967 230.969 431.967 226.043C431.967 221.117 448.194 169.398 448.194 169.398L451.632 80.7363L473.755 72.5269L477.032 61.8546L477.032 61.8546V61.8546Z" fill="#3F3D56"/>
<path d="M540.38 263.942C535.406 261.431 533.406 255.356 535.912 250.373C536.164 249.871 536.461 249.409 536.781 248.969L523.559 158.143L541.864 158.73L551.439 247.226C554.91 250.175 556.061 255.214 553.922 259.465C551.416 264.448 545.353 266.452 540.38 263.942H540.38Z" fill="#FFB6B6"/>
<path d="M366.69 221.075C364.687 215.868 367.277 210.021 372.473 208.015C372.996 207.813 373.527 207.67 374.058 207.559L425.136 131.362L438.307 144.113L386.088 216.13C386.683 220.65 384.159 225.158 379.725 226.87C374.528 228.876 368.692 226.281 366.69 221.075V221.075Z" fill="#FFB6B6"/>
<path d="M507.024 135.234C501.852 117.431 510.442 99.2682 528.948 99.3559C534.296 99.3813 538.452 100.936 539.604 105.241C543.635 120.307 545.833 143.049 545.833 143.049L550.615 167.263L547.718 172.29L553.756 188.517L550.828 196.194L550.194 235.396L535.446 234.575L519.195 204.689L512.981 200.988C512.981 200.988 517.971 152.667 508.046 138.754L507.024 135.234H507.024V135.234Z" fill="#3F3D56"/>
<path d="M440.961 91.4213C449.585 75.0163 471.664 71.1304 484.914 84.0745C488.744 87.8158 490.654 91.8269 488.498 95.7247C480.951 109.367 463.457 124.056 463.457 124.056L441.913 158.756L436.344 160.357L429.435 176.231L414.631 193.67L395.023 204.03L383.552 192.537L385.988 177.763L415.507 138.355C415.507 138.355 436.747 111.58 439.256 94.665L440.961 91.4213V91.4213V91.4213Z" fill="#3F3D56"/>
<path d="M481.547 57.0566C482.09 57.1219 482.631 57.171 483.169 57.1956C484.844 57.2876 486.498 57.1919 488.093 56.9211C492.937 56.1431 497.338 53.8442 500.734 50.4728C504.325 46.9154 506.782 42.1672 507.446 36.7618C509.002 24.0026 499.934 12.3798 487.199 10.8208C474.647 9.27511 463.205 18.0712 461.379 30.5375C461.35 30.7304 461.32 30.9153 461.3 31.1074C459.745 43.8748 468.804 55.4902 481.547 57.0566V57.0566V57.0566Z" fill="#FFB6B6"/>
<path d="M456.142 29.6833C459.441 31.3178 464.831 26.1793 466.895 29.1357C467.231 28.4968 467.601 27.879 467.967 27.2946C468.298 26.7718 468.772 25.6556 469.32 25.4645C468.626 27.141 468.779 29.4116 469.499 31.357C472.753 32.5752 477.013 29.8786 480.024 26.6891C484.754 21.6879 492.476 34.5125 490.65 41.1495C492.973 38.3065 498.016 39.9099 499.725 43.1606C501.432 46.4032 498.547 49.0012 497.93 52.6181L502.588 52.0254C505.527 49.1574 505.322 44.3245 507.742 41.0005C511.785 35.4375 513.351 29.7614 510.312 24.0202C507.616 18.9438 507.364 12.3738 502.419 9.44705C504.579 8.38856 496.895 10.0422 498.948 6.59266C501.009 3.15037 490.02 2.73257 489.304 4.57675C486.164 0.811455 482.996 -1.67108 479.134 1.346C475.34 4.31432 475.733 7.43437 471.277 7.15476C469.187 7.02498 469.416 10.9305 468.173 12.6332C466.938 14.3268 462.135 15.414 461.901 15.2328C460.632 14.2383 456.316 22.7042 456.316 22.7042C456.316 22.7042 452.816 28.027 456.142 29.6833H456.142Z" fill="#2F2E41"/>
<path d="M165.394 177.445C243.451 177.445 306.728 240.843 306.728 319.05C306.728 397.256 243.451 460.655 165.394 460.655C87.3371 460.655 -20.6904 383.116 24.0596 319.05C68.8096 254.984 87.3371 177.445 165.394 177.445Z" fill="#F19A00"/>
<path d="M354.559 184.181C353.292 184.181 352.261 185.214 352.261 186.483V260.164C352.261 261.434 353.292 262.467 354.559 262.467C355.827 262.467 356.857 261.434 356.857 260.164V186.483C356.857 185.214 355.827 184.181 354.559 184.181Z" fill="#3F3D56"/>
<path d="M174.586 56.3907C173.319 56.3907 172.288 57.4234 172.288 58.6933V94.3824C172.288 95.6523 173.319 96.6849 174.586 96.6849C175.854 96.6849 176.884 95.6523 176.884 94.3824V58.6933C176.884 57.4234 175.854 56.3907 174.586 56.3907Z" fill="#3F3D56"/>
<path d="M526.653 498.045C529.027 498.194 530.339 495.239 528.543 493.517L528.364 492.805C528.388 492.748 528.412 492.691 528.435 492.634C530.836 486.899 538.972 486.939 541.352 492.682C543.465 497.78 546.155 502.887 546.817 508.277C547.114 510.657 546.98 513.081 546.454 515.416C551.404 504.582 554.009 492.751 554.009 480.854C554.009 477.865 553.845 474.875 553.511 471.894C553.237 469.455 552.858 467.031 552.369 464.629C549.719 451.646 543.982 439.28 535.707 428.952C531.729 426.773 528.412 423.367 526.408 419.285C525.688 417.813 525.124 416.229 524.857 414.615C525.309 414.675 526.564 407.767 526.222 407.343C526.853 406.384 527.982 405.907 528.671 404.971C532.098 400.316 536.82 401.129 539.284 407.455C544.55 410.117 544.601 414.533 541.37 418.779C539.314 421.481 539.032 425.137 537.229 428.03C537.414 428.268 537.607 428.498 537.793 428.736C541.195 433.108 544.138 437.808 546.619 442.745C545.917 437.258 546.952 430.648 548.717 426.386C550.726 421.531 554.491 417.442 557.807 413.245C561.789 408.203 569.956 410.403 570.658 416.794C570.665 416.856 570.671 416.918 570.678 416.98C570.185 417.258 569.703 417.554 569.231 417.866C566.543 419.648 567.472 423.823 570.658 424.315L570.73 424.327C570.552 426.104 570.247 427.866 569.802 429.599C574.056 446.08 564.872 452.083 551.76 452.352C551.471 452.501 551.189 452.65 550.899 452.791C552.228 456.539 553.289 460.383 554.076 464.279C554.781 467.722 555.271 471.202 555.545 474.697C555.887 479.106 555.857 483.538 555.486 487.94L555.508 487.784C556.451 482.936 559.078 478.408 562.893 475.27C568.575 470.592 576.604 468.87 582.735 465.111C585.686 463.301 589.468 465.64 588.953 469.068L588.927 469.232C588.015 469.603 587.124 470.035 586.263 470.518C585.771 470.797 585.288 471.092 584.817 471.404C582.129 473.186 583.058 477.361 586.243 477.854L586.315 477.865C586.367 477.872 586.412 477.88 586.463 477.887C584.898 481.612 582.716 485.07 579.984 488.052C577.325 502.439 565.902 503.804 553.682 499.615H553.675C552.339 505.444 550.387 511.14 547.879 516.568H527.172C527.098 516.338 527.031 516.1 526.964 515.869C528.879 515.988 530.809 515.877 532.694 515.527C531.158 513.639 529.621 511.735 528.085 509.846C528.048 509.809 528.018 509.772 527.989 509.735C527.209 508.768 526.423 507.809 525.643 506.842L525.643 506.841C525.594 503.874 525.949 500.916 526.653 498.046L526.653 498.045L526.653 498.045H526.653Z" fill="#F2F2F2"/>
<path d="M0 516.5C0 517.332 0.552867 518 1.24134 518H587.759C588.447 518 589 517.332 589 516.5C589 515.668 588.447 515 587.759 515H1.24134C0.552867 515 0 515.668 0 516.5Z" fill="#CCCCCC"/>
<path d="M103.598 309.505H24.0597V307.202H103.598C110.508 307.202 116.129 301.57 116.129 294.646V240.764H118.427V294.646C118.427 302.839 111.775 309.505 103.598 309.505H103.598Z" fill="#6C63FF"/>
<path d="M255.365 426.306H74.4617V428.609H255.365V426.306Z" fill="#6C63FF"/>
<path d="M370.142 294.109H273.516C268.301 294.109 264.059 289.858 264.059 284.634V189.003C264.059 183.778 268.301 179.528 273.516 179.528H370.142C375.356 179.528 379.599 183.778 379.599 189.003V284.634C379.599 289.858 375.356 294.109 370.142 294.109Z" fill="#E6E6E6"/>
<path d="M291.51 182.351C277.905 182.351 266.876 193.401 266.876 207.032V282.605C266.876 287.399 270.755 291.285 275.54 291.285H334.625C357.907 291.285 376.781 272.375 376.781 249.049V191.032C376.781 186.238 372.902 182.351 368.117 182.351H291.51V182.351Z" fill="white"/>
<path d="M347.708 210.142H295.747C294.756 210.142 293.949 209.334 293.949 208.34C293.949 207.347 294.756 206.539 295.747 206.539H347.708C348.699 206.539 349.506 207.347 349.506 208.34C349.506 209.334 348.699 210.142 347.708 210.142Z" fill="#E6E6E6"/>
<path d="M347.708 248.552H295.747C294.756 248.552 293.949 247.744 293.949 246.751C293.949 245.758 294.756 244.95 295.747 244.95H347.708C348.699 244.95 349.506 245.758 349.506 246.751C349.506 247.744 348.699 248.552 347.708 248.552Z" fill="#E6E6E6"/>
<path d="M368.808 229.359H274.647C273.655 229.359 272.849 228.551 272.849 227.558C272.849 226.565 273.655 225.757 274.647 225.757H368.808C369.8 225.757 370.606 226.565 370.606 227.558C370.606 228.551 369.8 229.359 368.808 229.359Z" fill="#E6E6E6"/>
<path d="M369.77 264.17H335.753C334.762 264.17 333.956 263.362 333.956 262.368C333.956 261.375 334.762 260.567 335.753 260.567H369.77C370.761 260.567 371.567 261.375 371.567 262.368C371.567 263.362 370.761 264.17 369.77 264.17Z" fill="#E6E6E6"/>
<path d="M167.182 484.647H90.454C86.3133 484.647 82.9447 481.272 82.9447 477.124V401.187C82.9447 397.038 86.3133 393.663 90.454 393.663H167.182C171.323 393.663 174.691 397.038 174.691 401.187V477.124C174.691 481.272 171.323 484.647 167.182 484.647H167.182Z" fill="#E6E6E6"/>
<path d="M104.743 395.904C93.9399 395.904 85.1821 404.679 85.1821 415.503V475.513C85.1821 479.32 88.2623 482.406 92.062 482.406H138.979C157.467 482.406 172.454 467.39 172.454 448.867V402.798C172.454 398.991 169.373 395.904 165.574 395.904H104.743L104.743 395.904H104.743Z" fill="white"/>
<path d="M149.368 417.972H108.107C107.32 417.972 106.679 417.33 106.679 416.542C106.679 415.753 107.32 415.112 108.107 415.112H149.368C150.155 415.112 150.795 415.753 150.795 416.542C150.795 417.33 150.155 417.972 149.368 417.972Z" fill="#E6E6E6"/>
<path d="M149.368 448.473H108.107C107.32 448.473 106.679 447.831 106.679 447.042C106.679 446.253 107.32 445.612 108.107 445.612H149.368C150.155 445.612 150.795 446.253 150.795 447.042C150.795 447.831 150.155 448.473 149.368 448.473Z" fill="#E6E6E6"/>
<path d="M166.123 433.232H91.3521C90.5649 433.232 89.9244 432.591 89.9244 431.802C89.9244 431.013 90.5649 430.372 91.3521 430.372H166.123C166.91 430.372 167.55 431.013 167.55 431.802C167.55 432.591 166.91 433.232 166.123 433.232Z" fill="#E6E6E6"/>
<path d="M166.886 460.874H139.875C139.088 460.874 138.447 460.232 138.447 459.444C138.447 458.655 139.088 458.013 139.875 458.013H166.886C167.673 458.013 168.314 458.655 168.314 459.444C168.314 460.232 167.673 460.874 166.886 460.874Z" fill="#E6E6E6"/>
<path d="M113.554 240.183H56.8102C53.748 240.183 51.2568 237.687 51.2568 234.619V178.46C51.2568 175.392 53.748 172.896 56.8102 172.896H113.554C116.616 172.896 119.107 175.392 119.107 178.46V234.619C119.107 237.687 116.616 240.183 113.554 240.183Z" fill="#E6E6E6"/>
<path d="M67.3776 174.554C59.3881 174.554 52.9114 181.043 52.9114 189.048V233.427C52.9114 236.243 55.1893 238.525 57.9994 238.525H92.6966C106.369 238.525 117.453 227.42 117.453 213.722V179.651C117.453 176.836 115.175 174.554 112.365 174.554H67.3776V174.554L67.3776 174.554Z" fill="white"/>
<path d="M100.38 190.874H69.8655C69.2834 190.874 68.8097 190.399 68.8097 189.816C68.8097 189.233 69.2834 188.758 69.8655 188.758H100.38C100.962 188.758 101.435 189.233 101.435 189.816C101.435 190.399 100.962 190.874 100.38 190.874Z" fill="#E6E6E6"/>
<path d="M100.38 213.43H69.8655C69.2834 213.43 68.8097 212.955 68.8097 212.372C68.8097 211.789 69.2834 211.315 69.8655 211.315H100.38C100.962 211.315 101.435 211.789 101.435 212.372C101.435 212.955 100.962 213.43 100.38 213.43Z" fill="#E6E6E6"/>
<path d="M112.771 202.159H57.4744C56.8923 202.159 56.4186 201.685 56.4186 201.101C56.4186 200.518 56.8923 200.044 57.4744 200.044H112.771C113.353 200.044 113.826 200.518 113.826 201.101C113.826 201.685 113.353 202.159 112.771 202.159Z" fill="#E6E6E6"/>
<path d="M113.335 222.601H93.3593C92.7772 222.601 92.3035 222.127 92.3035 221.544C92.3035 220.96 92.7771 220.486 93.3593 220.486H113.335C113.917 220.486 114.391 220.96 114.391 221.544C114.391 222.127 113.917 222.601 113.335 222.601Z" fill="#E6E6E6"/>
<path d="M279.151 310.991C285.497 310.991 290.641 305.837 290.641 299.478C290.641 293.12 285.497 287.966 279.151 287.966C272.805 287.966 267.66 293.12 267.66 299.478C267.66 305.837 272.805 310.991 279.151 310.991Z" fill="#6C63FF"/>
<path d="M117.133 252.277C123.479 252.277 128.624 247.122 128.624 240.764C128.624 234.406 123.479 229.251 117.133 229.251C110.787 229.251 105.643 234.406 105.643 240.764C105.643 247.122 110.787 252.277 117.133 252.277Z" fill="#6C63FF"/>
<path d="M172.288 410C178.634 410 183.779 404.845 183.779 398.487C183.779 392.129 178.634 386.974 172.288 386.974C165.942 386.974 160.798 392.129 160.798 398.487C160.798 404.845 165.942 410 172.288 410Z" fill="#6C63FF"/>
<path d="M197.109 90.7803C205.018 90.7803 211.43 84.4916 211.43 76.7341C211.43 68.9766 205.018 62.6879 197.109 62.6879C189.2 62.6879 182.788 68.9766 182.788 76.7341C182.788 84.4916 189.2 90.7803 197.109 90.7803Z" fill="#F2F2F2"/>
<path d="M311.915 71.9288H234.83C232.186 71.9288 230.034 69.7731 230.034 67.1235C230.034 64.474 232.186 62.3182 234.83 62.3182H311.915C314.559 62.3182 316.711 64.474 316.711 67.1235C316.711 69.7731 314.559 71.9288 311.915 71.9288Z" fill="#F2F2F2"/>
<path d="M372.072 88.1928H234.83C232.186 88.1928 230.034 86.0371 230.034 83.3876C230.034 80.738 232.186 78.5823 234.83 78.5823H372.072C374.716 78.5823 376.868 80.738 376.868 83.3876C376.868 86.0371 374.716 88.1928 372.072 88.1928Z" fill="#F2F2F2"/>
<path d="M267.894 473.319C273.013 473.319 277.163 469.249 277.163 464.229C277.163 459.208 273.013 455.138 267.894 455.138C262.775 455.138 258.626 459.208 258.626 464.229C258.626 469.249 262.775 473.319 267.894 473.319Z" fill="#F2F2F2"/>
<path d="M342.195 461.119H292.307C290.595 461.119 289.203 459.723 289.203 458.009C289.203 456.294 290.595 454.899 292.307 454.899H342.195C343.906 454.899 345.299 456.294 345.299 458.009C345.299 459.723 343.906 461.119 342.195 461.119Z" fill="#F2F2F2"/>
<path d="M381.128 471.644H292.307C290.595 471.644 289.203 470.249 289.203 468.535C289.203 466.82 290.595 465.425 292.307 465.425H381.128C382.839 465.425 384.231 466.82 384.231 468.535C384.231 470.249 382.839 471.644 381.128 471.644Z" fill="#F2F2F2"/>
<path d="M156.488 179.563H154.19V288.933H156.488V179.563Z" fill="#E6E6E6"/>
<path d="M155.339 295.84C159.147 295.84 162.234 292.748 162.234 288.933C162.234 285.118 159.147 282.025 155.339 282.025C151.532 282.025 148.445 285.118 148.445 288.933C148.445 292.748 151.532 295.84 155.339 295.84Z" fill="#E6E6E6"/>
<path d="M259.904 375.278C263.711 375.278 266.798 372.185 266.798 368.37C266.798 364.555 263.711 361.462 259.904 361.462C256.096 361.462 253.009 364.555 253.009 368.37C253.009 372.185 256.096 375.278 259.904 375.278Z" fill="#E6E6E6"/>
<path d="M73.7563 280.874C77.5639 280.874 80.6507 277.781 80.6507 273.966C80.6507 270.151 77.5639 267.059 73.7563 267.059C69.9486 267.059 66.8619 270.151 66.8619 273.966C66.8619 277.781 69.9486 280.874 73.7563 280.874Z" fill="#E6E6E6"/>
<path d="M71.2084 273.977L33.5045 275.121L33.5741 277.423L71.278 276.28L71.2084 273.977Z" fill="#E6E6E6"/>
<path d="M315.99 394.814H258.818V368.37H261.116V392.512H315.99V394.814Z" fill="#E6E6E6"/>
<path d="M70.9264 356.299C74.734 356.299 77.8208 353.207 77.8208 349.392C77.8208 345.577 74.734 342.484 70.9264 342.484C67.1188 342.484 64.032 345.577 64.032 349.392C64.032 353.207 67.1188 356.299 70.9264 356.299Z" fill="#E6E6E6"/>
<path d="M126.332 375.836H69.16V349.392H71.4582V373.533H126.332V375.836Z" fill="#E6E6E6"/>
<path d="M301.27 323.108H26.665V325.41H301.27V323.108Z" fill="#E6E6E6"/>
</svg>
